<?xml version="1.0" encoding="UTF-8"?>
<svg id="a" data-name="Layer 1" xmlns="http://www.w3.org/2000/svg" width="5in" height="5in" viewBox="0 0 360 360">
  <g id="b" data-name="LBCorr">
    <g>
      <path d="M83.93908,77.73128c8.61398,0,15.59762-6.98691,15.59762-15.60554s-6.98363-15.60554-15.59762-15.60554c-8.61479,0-15.59843,6.98681-15.59843,15.60554s6.98363,15.60554,15.59843,15.60554Z" fill="#374ea2"/>
      <ellipse cx="97.05717" cy="23.99589" rx="9.24621" ry="9.25055" fill="#e6b222"/>
      <path d="M143.2121,22.09684c-16.38847,0-29.67418,13.29186-29.67418,29.68809,0,5.44798,1.49114,10.53655,4.05163,14.92536,2.83244-1.31029,5.97661-2.06183,9.30288-2.06183,4.26284,0,8.23108,1.22196,11.61401,3.30394,4.74046,2.91761,8.29426,7.55402,9.79909,13.0529,11.18661-1.94015,20.21755-10.12444,23.36489-20.85233,.77875-2.6563,1.21585-5.45948,1.21585-8.36804,0-16.39623-13.28563-29.68809-29.67418-29.68809Z" fill="#00a4e0"/>
      <path d="M148.30554,81.0053c-1.50483-5.49888-5.05863-10.13529-9.79909-13.0529-3.38293-2.08198-7.35117-3.30394-11.61401-3.30394-3.32628,0-6.47044,.75154-9.30288,2.06183-7.62157,3.52472-12.92059,11.2204-12.92059,20.17214,0,.77348,.04051,1.53767,.11739,2.29085,.65891,6.43735,4.07666,12.04266,9.03493,15.66255,3.67029,2.68003,8.17932,4.2805,13.07115,4.2805,7.33984,0,13.82805-3.57487,17.87479-9.06241,2.72076-3.68938,4.34868-8.23486,4.34868-13.17148,0-2.03786-.29713-4.00223-.81037-5.87714Z" fill="#e6b222"/>
      <path d="M211.37452,61.43175c-3.44932-3.41226-8.18818-5.52253-13.42247-5.52253-4.07426,0-7.84171,1.28681-10.94213,3.46177-4.92505,3.45498-8.15256,9.16723-8.15256,15.64209,0,10.55082,8.54922,19.10396,19.0947,19.10396,10.54628,0,19.0947-8.55313,19.0947-19.10396,0-5.31429-2.17191-10.11834-5.67223-13.58133Z" fill="#e6b222"/>
      <path d="M66.54839,12.24541c3.38051,0,6.11989-2.74127,6.11989-6.12266s-2.73938-6.12276-6.11989-6.12276c-3.3797,0-6.11908,2.74127-6.11908,6.12276s2.73938,6.12266,6.11908,6.12266Z" fill="#00a4e0"/>
      <path d="M234.74736,125.006c-3.39913-6.27441-5.33062-13.46096-5.33062-21.09912,0-2.20229,.16595-4.3654,.47599-6.48164-2.91828-1.02613-6.04379-1.61279-9.3134-1.61279-15.53529,0-28.12882,12.59934-28.12882,28.1415,0,2.13568,.25904,4.20757,.70913,6.20709,7.72191-4.71193,16.79326-7.4284,26.49928-7.4284,5.2529,0,10.32043,.79673,15.08844,2.27336Z" fill="#374ea2"/>
      <path d="M243.40021,71.59619c-7.11558,6.69042-12.02364,15.70015-13.50744,25.82899-.3101,2.11631-.47607,4.27936-.47607,6.48172,0,7.63811,1.9315,14.82464,5.33065,21.09912,4.65144,1.44054,9.0139,3.53605,12.99021,6.16829,2.83081,1.87368,5.46744,4.01675,7.86351,6.40244,6.09888-9.20196,16.53504-15.2763,28.3976-15.2763,2.60745,0,5.13631,.32019,7.57624,.87551-9.31748-23.42079-26.25807-40.8961-48.1747-51.57978Z" fill="#00a4e0"/>
      <path d="M297.04391,141.62278c-1.33079-6.50333-3.1652-12.65653-5.46899-18.44681-2.43993-.55532-4.96879-.87551-7.57624-.87551-11.86256,0-22.29872,6.07434-28.3976,15.2763-1.11949,1.68945-2.09576,3.48141-2.9045,5.36414-1.77115,4.12399-2.75956,8.66385-2.75956,13.43711,0,6.52894,1.86751,12.60695,5.05047,17.78995,3.3425,5.44423,8.15828,9.86575,13.90819,12.7208,4.5559,2.26214,9.672,3.56688,15.103,3.56688,4.75587,0,9.28104-.98153,13.39332-2.743,.37075-1.73862,.69617-3.48793,.9779-5.24899,.77712-4.8691,1.23859-9.81127,1.23859-14.82007,0-9.21109-.89858-17.88081-2.56457-26.02082Z" fill="#374ea2"/>
      <path d="M192.49018,259.30719c-5.92237-5.3567-9.97963-12.71059-11.11456-21.016-9.57487,10.28103-22.56263,17.32706-37.16375,19.33963,1.12522,3.35517,1.75987,6.93467,1.75987,10.66866,0,4.92493-1.08636,9.58756-2.99033,13.80121h37.50617c1.44335-8.90047,5.77585-16.82604,12.00259-22.7935Z" fill="#e6b222"/>
      <path d="M230.47881,268.29944c0-1.14742,.0591-2.28081,.1716-3.39879-4.52191,2.15636-9.56268,3.39879-14.90548,3.39879-5.57105,0-10.81741-1.34503-15.48426-3.67788-2.8357-1.41762-5.44233-3.20868-7.7705-5.3144-6.2267,5.9675-10.55925,13.89301-12.00253,22.79354h52.971c-1.89832-4.21526-2.97982-8.87769-2.97982-13.80126Z" fill="#00a4e0"/>
      <path d="M283.99867,190.45564c-5.431,0-10.5471-1.30474-15.103-3.56688-3.39508,12.73744-11.59217,23.51018-22.53675,30.25989-3.92283,2.41856-8.19872,4.31149-12.73114,5.60156,2.35808,6.86952,6.56354,12.87869,12.03579,17.42091,1.12601,.93423,2.30795,1.80069,3.53513,2.6059,5.14927,3.38028,11.14047,5.58076,17.59551,6.20809,2.97575-3.83895,5.95313-7.94582,8.84304-12.28773,9.4753-14.23262,17.91368-30.97122,21.75474-48.98472-4.11228,1.76146-8.63745,2.743-13.39332,2.743Z" fill="#00a4e0"/>
      <path d="M249.1987,242.77702c-1.224,4.44932-3.30036,8.53466-6.05674,12.0783-3.30924,4.25351-7.57942,7.70254-12.49156,10.04533-.1125,1.11798-.1716,2.25137-.1716,3.39879,0,4.92358,1.08151,9.58601,2.97982,13.80126h2.09176s7.76316-6.4097,17.87797-17.34833c4.18116-4.52166,8.75973-9.82448,13.36584-15.76727-6.45504-.62733-12.44623-2.82781-17.59551-6.20809Z" fill="#e6b222"/>
      <path d="M89.42192,153.40347c-.33357-2.26581-.51242-4.58242-.51242-6.94104,0-.86939,.02747-1.73235,.07361-2.59024-2.77578-.68875-5.67629-1.06032-8.665-1.06032-1.36079,0-2.70128,.08286-4.02245,.23032-1.4741,7.72097-2.24714,15.9263-2.24714,24.6014,0,4.25473,.32705,8.45889,.89124,12.61005,1.61985,11.93443,5.39538,23.37381,10.34387,34.00725,14.16318-1.96258,25.67765-12.19142,29.5285-25.66417-13.39576-6.78951-23.11879-19.77333-25.39022-35.19325Z" fill="#e6b222"/>
      <path d="M182.64982,138.68731c-3.23808-19.54636-18.47061-35.02826-37.88259-38.63339-4.04674,5.48754-10.53495,9.06241-17.87479,9.06241-4.89184,0-9.40087-1.60047-13.07115-4.2805-14.11133,7.5767-23.92338,22.1211-24.83818,39.03636-.04614,.85789-.07361,1.72085-.07361,2.59024,0,2.35862,.17885,4.67524,.51242,6.94104,2.27143,15.41992,11.99446,28.40374,25.39022,35.19325,6.39838,3.2431,13.62809,5.08212,21.29172,5.08212,12.85578,0,24.50379-5.14892,33.01497-13.48972,6.96184-6.82164,11.81398-15.78032,13.50752-25.8175,.43384-2.57303,.67187-5.21261,.67187-7.9092,0-2.64953-.22907-5.2445-.6484-7.77512Z" fill="#374ea2"/>
      <path d="M254.98749,174.16796c-3.18297-5.18301-5.05047-11.26102-5.05047-17.78995,0-4.77327,.98841-9.31312,2.75956-13.43711,.80874-1.88274,1.78501-3.6747,2.9045-5.36414-2.39607-2.3857-5.0327-4.52876-7.86351-6.40244-3.97631-2.63224-8.33877-4.72776-12.99021-6.16829-4.76801-1.47666-9.83553-2.27339-15.08841-2.27339-9.70607,0-18.77736,2.71649-26.49928,7.42843-3.87677,2.36604-7.40456,5.24393-10.50985,8.52626,.41933,2.53062,.6484,5.12559,.6484,7.77512,0,2.69659-.23803,5.33617-.67187,7.9092-1.69355,10.03718-6.54569,18.99585-13.50752,25.8175,1.68947,13.33133,8.51281,25.05584,18.43825,33.1213,2.05614,1.67085,4.24744,3.17867,6.55131,4.51702,7.51306,4.36597,16.23635,6.87816,25.55057,6.87816,4.84652,0,9.52787-.69127,13.96884-1.9554,4.53242-1.29006,8.80831-3.18299,12.73114-5.60156,10.94458-6.74971,19.14167-17.52245,22.53675-30.25989-5.7499-2.85505-10.56569-7.27657-13.90819-12.7208Z" fill="#e6b222"/>
      <path d="M181.36917,228.85839c.77875-5.75203,2.9539-11.04815,6.1879-15.54796-9.92544-8.06546-16.74878-19.78997-18.43825-33.1213-8.51118,8.3408-20.15918,13.48972-33.01497,13.48972-7.66363,0-14.89334-1.83902-21.29172-5.08212-3.85085,13.47275-15.36533,23.70159-29.5285,25.66417,3.89699,8.37465,8.50637,16.2385,13.37391,23.4402,4.20138-1.89448,8.84956-2.97396,13.75762-2.97396,5.44722,0,10.57539,1.32742,15.12403,3.63229,7.8102,3.95713,13.85479,10.86343,16.67264,19.27135,14.60117-2.01257,27.58894-9.05858,37.16376-19.33961-.21211-1.55292-.36023-3.12623-.36023-4.73754,0-1.59655,.14575-3.15584,.35379-4.69522Z" fill="#00a4e0"/>
      <path d="M245.66357,240.17112c-5.47225-4.54222-9.67771-10.55139-12.03579-17.42091-4.44096,1.26413-9.12232,1.9554-13.96884,1.9554-9.31421,0-18.0375-2.51219-25.55057-6.87816-2.30387-1.33834-4.49517-2.84616-6.55131-4.51702-3.234,4.49981-5.40916,9.79593-6.1879,15.54796-.20804,1.53938-.35379,3.09866-.35379,4.69522,0,1.61131,.14812,3.18462,.36023,4.73754,1.13498,8.3054,5.19224,15.65929,11.11455,21.01601,2.32817,2.10571,4.9348,3.89678,7.7705,5.3144,4.66685,2.33285,9.91321,3.67788,15.48426,3.67788,5.3428,0,10.38357-1.24243,14.90548-3.39879,4.91214-2.3428,9.18232-5.79183,12.49156-10.04533,2.75638-3.54364,4.83274-7.62897,6.05674-12.0783-1.22718-.80521-2.40911-1.67167-3.53513-2.6059Z" fill="#374ea2"/>
      <path d="M144.21184,257.63077c-2.81785-8.40792-8.86244-15.31422-16.67264-19.27135-4.54865-2.30487-9.67681-3.63229-15.12403-3.63229-4.90806,0-9.55624,1.07948-13.75762,2.97396,3.62904,5.37034,7.38435,10.37499,11.08545,14.93661,3.19838,3.94123,6.33765,7.54497,9.31014,10.78946,10.76484,11.7493,19.2218,18.67354,19.2218,18.67354h4.70647c1.90394-4.21371,2.99034-8.8763,2.99034-13.80126,0-3.73399-.63462-7.31351-1.7599-10.66867Z" fill="#374ea2"/>
    </g>
    <g>
      <path d="M150.82099,318.9371h70.75272c4.97997,0,9.01643,3.78433,9.01643,8.4498,0,4.66745-4.03646,8.45561-9.01643,8.45561h-70.75272c-4.9779,0-9.01539-3.78816-9.01539-8.45561,0-4.66548,4.03749-8.4498,9.01539-8.4498Z" fill="#374ea2"/>
      <path d="M186.19709,359.77454c-11.4527,0-21.48495-5.89569-27.06866-14.73156h54.13897c-5.58474,8.83587-15.6201,14.73156-27.07031,14.73156Z" fill="#374ea2"/>
      <path d="M150.82099,292.3867h70.75272c4.97997,0,9.01643,3.78422,9.01643,8.4498,0,4.66755-4.03646,8.45364-9.01643,8.45364h-70.75272c-4.9779,0-9.01539-3.78609-9.01539-8.45364,0-4.66558,4.03749-8.4498,9.01539-8.4498Z" fill="#374ea2"/>
    </g>
  </g>
</svg>