<?xml version="1.0" encoding="utf-8"?>
<!-- Generator: Adobe Illustrator 26.0.2, SVG Export Plug-In . SVG Version: 6.00 Build 0)  -->
<svg style="width: 200px;" version="1.1" id="Layer_1" xmlns="http://www.w3.org/2000/svg" xmlns:xlink="http://www.w3.org/1999/xlink" x="0px" y="0px"
    viewBox="0 0 317.5 191.5" style="enable-background:new 0 0 317.5 191.5;" xml:space="preserve">
<style type="text/css">
    .st0{fill:#374EA2;}
    .st1{fill:#E6B222;}
    .st2{fill:#00A4E0;}
    .st3{fill:#145FAB;}
    .st4{fill:#4FB849;}
    .st5{fill:url(#SVGID_1_);}
    .st6{fill:url(#SVGID_00000095318839576887088870000006761560787621682820_);}
    .st7{fill:#B7B9BC;}
    .st8{fill:url(#SVGID_00000074428024128465923650000002038919604141140126_);}
    .st9{fill:url(#SVGID_00000017475350788175643970000004828364659038941094_);}
    .st10{fill:url(#SVGID_00000031178635888685703050000012044728635464905377_);}
    .st11{fill:url(#SVGID_00000106870361532048371610000011513107071777798060_);}
    .st12{fill:url(#SVGID_00000019656273235473243610000012493199934998317734_);}
</style>
<g>
    <g>
        <g>
            <path class="st0" d="M220.3,34c3.7,0,6.6-3,6.6-6.6c0-3.7-3-6.6-6.6-6.6c-3.7,0-6.6,3-6.6,6.6C213.7,31.1,216.6,34,220.3,34z"/>
            <circle class="st1" cx="225.9" cy="11.2" r="3.9"/>
            <path class="st2" d="M245.5,10.4c-7,0-12.6,5.7-12.6,12.6c0,2.3,0.6,4.5,1.7,6.3c1.2-0.6,2.5-0.9,4-0.9c1.8,0,3.5,0.5,4.9,1.4
                c2,1.2,3.5,3.2,4.2,5.5c4.8-0.8,8.6-4.3,9.9-8.9c0.3-1.1,0.5-2.3,0.5-3.6C258.1,16,252.5,10.4,245.5,10.4z"/>
            <path class="st1" d="M247.7,35.4c-0.6-2.3-2.2-4.3-4.2-5.5c-1.4-0.9-3.1-1.4-4.9-1.4c-1.4,0-2.8,0.3-4,0.9
                c-3.2,1.5-5.5,4.8-5.5,8.6c0,0.3,0,0.7,0,1c0.3,2.7,1.7,5.1,3.8,6.7c1.6,1.1,3.5,1.8,5.6,1.8c3.1,0,5.9-1.5,7.6-3.9
                c1.2-1.6,1.8-3.5,1.8-5.6C248,37.1,247.9,36.2,247.7,35.4z"/>
            <path class="st1" d="M274.5,27.1c-1.5-1.5-3.5-2.3-5.7-2.3c-1.7,0-3.3,0.5-4.7,1.5c-2.1,1.5-3.5,3.9-3.5,6.6
                c0,4.5,3.6,8.1,8.1,8.1c4.5,0,8.1-3.6,8.1-8.1C276.9,30.6,276,28.6,274.5,27.1z"/>
            <path class="st2" d="M212.9,6.2c1.4,0,2.6-1.2,2.6-2.6c0-1.4-1.2-2.6-2.6-2.6c-1.4,0-2.6,1.2-2.6,2.6
                C210.3,5,211.5,6.2,212.9,6.2z"/>
            <path class="st0" d="M284.4,54.1c-1.4-2.7-2.3-5.7-2.3-9c0-0.9,0.1-1.9,0.2-2.8c-1.2-0.4-2.6-0.7-4-0.7c-6.6,0-12,5.4-12,12
                c0,0.9,0.1,1.8,0.3,2.6c3.3-2,7.1-3.2,11.3-3.2C280.3,53.2,282.4,53.5,284.4,54.1z"/>
            <path class="st2" d="M288.1,31.4c-3,2.8-5.1,6.7-5.7,11c-0.1,0.9-0.2,1.8-0.2,2.8c0,3.2,0.8,6.3,2.3,9c2,0.6,3.8,1.5,5.5,2.6
                c1.2,0.8,2.3,1.7,3.3,2.7c2.6-3.9,7-6.5,12.1-6.5c1.1,0,2.2,0.1,3.2,0.4C304.7,43.4,297.4,36,288.1,31.4z"/>
            <path class="st3" d="M305.4,53c-5,0-9.5,2.6-12.1,6.5c1.2,1.2,2.3,2.5,3.2,4c1.5,0.4,3,0.6,4.6,0.6c3.6,0,7-1,9.9-2.8
                c-0.6-2.8-1.3-5.4-2.3-7.8C307.6,53.1,306.5,53,305.4,53z"/>
            <path class="st4" d="M225.7,63.4c-1-0.5-2.1-0.9-3.2-1.2c0,0.4,0,0.7,0,1.1c0,1,0.1,2,0.2,3C223.6,65.2,224.6,64.2,225.7,63.4z"
                />
            <path class="st4" d="M262.3,66.6c0.2-1.1,0.3-2.2,0.3-3.4c0-1.1-0.1-2.2-0.3-3.3c-1.1,1.2-2.1,2.4-2.9,3.8
                C260.4,64.7,261.4,65.6,262.3,66.6z"/>
            <path class="st3" d="M292.1,61.8c0.3-0.8,0.8-1.6,1.2-2.3c-1-1-2.1-1.9-3.3-2.7c-0.3,1-0.6,1.9-1.1,2.8
                C289.8,60.4,290.9,61.1,292.1,61.8z"/>
            <path class="st4" d="M278.4,65.7c4.5,0,8.4-2.5,10.4-6.1c-1.8-1.5-3.3-3.3-4.4-5.4c-2-0.6-4.2-1-6.4-1c-4.1,0-8,1.2-11.3,3.2
                C268,61.7,272.7,65.7,278.4,65.7z"/>
            <path class="st4" d="M288.8,59.5c0.5-0.9,0.9-1.8,1.1-2.8c-1.7-1.1-3.5-2-5.5-2.6C285.6,56.2,287.1,58,288.8,59.5z"/>
            <linearGradient id="SVGID_1_" gradientUnits="userSpaceOnUse" x1="290.907" y1="68.399" x2="319.881" y2="68.399">
                <stop  offset="0" style="stop-color:#FFCB05"/>
                <stop  offset="1" style="stop-color:#DDA027"/>
            </linearGradient>
            <path class="st5" d="M290.9,67.5c0,2.8,0.8,5.4,2.1,7.6c2-0.9,4.3-1.4,6.6-1.4c-0.2-3.7-1.3-7.2-3.2-10.2c-1.5-0.4-3-1-4.4-1.7
                C291.3,63.5,290.9,65.4,290.9,67.5z"/>
            <path class="st3" d="M296.5,63.5c-0.9-1.4-2-2.8-3.2-4c-0.5,0.7-0.9,1.5-1.2,2.3C293.5,62.5,294.9,63.1,296.5,63.5z"/>
            
                <linearGradient id="SVGID_00000169549156038230611440000006852257508655844492_" gradientUnits="userSpaceOnUse" x1="290.907" y1="61.4706" x2="319.8811" y2="61.4706">
                <stop  offset="0" style="stop-color:#FFCB05"/>
                <stop  offset="1" style="stop-color:#DDA027"/>
            </linearGradient>
            <path style="fill:url(#SVGID_00000169549156038230611440000006852257508655844492_);" d="M296.5,63.5c-0.9-1.4-2-2.8-3.2-4
                c-0.5,0.7-0.9,1.5-1.2,2.3C293.5,62.5,294.9,63.1,296.5,63.5z"/>
            <path class="st7" d="M278,96.5c2.1,0,4.1-0.3,5.9-0.8c-0.6-1.7-0.9-3.5-0.9-5.4c0-1,0.1-2,0.3-3c-2.1-1.1-4.5-1.8-7-1.8
                c-2.8,0-5.5,0.8-7.7,2.2c-0.3,2-0.8,4-1.5,5.9C270.4,95.5,274.1,96.5,278,96.5z"/>
            <path class="st4" d="M293.1,75c-5,2.2-8.7,6.7-9.7,12.2c2.6,1.4,4.7,3.5,6,6c4.7-2.9,8.1-7.4,9.6-12.9
                C296.5,79.2,294.5,77.4,293.1,75z"/>
            <path class="st4" d="M299,80.4c0.5-1.8,0.7-3.7,0.7-5.6c0-0.4,0-0.8,0-1.2c-2.4,0-4.6,0.5-6.6,1.4
                C294.5,77.4,296.5,79.2,299,80.4z"/>
            <path class="st0" d="M310.9,61.2c-0.6-2.8-1.3-5.4-2.3-7.8c-1-0.2-2.1-0.4-3.2-0.4c-5,0-9.5,2.6-12.1,6.5
                c-0.5,0.7-0.9,1.5-1.2,2.3c-0.8,1.8-1.2,3.7-1.2,5.7c0,2.8,0.8,5.4,2.1,7.6c1.4,2.3,3.5,4.2,5.9,5.4c1.9,1,4.1,1.5,6.4,1.5
                c2,0,3.9-0.4,5.7-1.2c0.2-0.7,0.3-1.5,0.4-2.2c0.3-2.1,0.5-4.2,0.5-6.3C312,68.3,311.7,64.7,310.9,61.2z"/>
            <path class="st4" d="M283.3,87.3c-0.2,1-0.3,2-0.3,3c0,1.9,0.3,3.7,0.9,5.4c1.9-0.5,3.7-1.4,5.4-2.4
                C288,90.7,285.9,88.6,283.3,87.3z"/>
            <path class="st1" d="M266.5,111.2c-2.5-2.3-4.2-5.4-4.7-8.9c-4.1,4.4-9.6,7.4-15.8,8.2c0.5,1.4,0.7,2.9,0.7,4.5
                c0,2.1-0.5,4.1-1.3,5.9h16C262,117.1,263.8,113.8,266.5,111.2z"/>
            <path class="st2" d="M282.6,115.1c0-0.5,0-1,0.1-1.4c-1.9,0.9-4.1,1.4-6.3,1.4c-2.4,0-4.6-0.6-6.6-1.6c-1.2-0.6-2.3-1.4-3.3-2.3
                c-2.6,2.5-4.5,5.9-5.1,9.7h6.4h16.1C283.1,119.1,282.6,117.1,282.6,115.1z"/>
            <path class="st7" d="M284.7,107.6c1.2,0.5,2.3,1,3.3,1.7c1.2-1.5,2.1-3.2,2.6-5.1c-0.5-0.3-1-0.7-1.5-1.1
                C287.3,104.3,285.8,105.8,284.7,107.6z"/>
            <path class="st4" d="M291,102c-0.1,0.7-0.2,1.5-0.4,2.2c2.2,1.4,4.7,2.4,7.5,2.6c1.3-1.6,2.5-3.4,3.8-5.2
                c-1.5-0.6-3.2-0.9-4.9-0.9C294.8,100.7,292.8,101.2,291,102z"/>
            <path class="st4" d="M290.6,104.2c0.2-0.7,0.3-1.4,0.4-2.2c-0.7,0.3-1.3,0.7-1.9,1.1C289.6,103.5,290.1,103.9,290.6,104.2z"/>
            <path class="st2" d="M305.4,82c-2.3,0-4.5-0.6-6.4-1.5c-1.4,5.4-4.9,10-9.6,12.9c-1.7,1-3.5,1.8-5.4,2.4c1,2.9,2.8,5.5,5.1,7.4
                c0.5,0.4,1,0.8,1.5,1.1c2.2,1.4,4.7,2.4,7.5,2.6c1.3-1.6,2.5-3.4,3.8-5.2c4-6.1,7.6-13.2,9.3-20.8C309.3,81.5,307.4,82,305.4,82z
                "/>
            <path class="st3" d="M288,109.3c-1.4,1.8-3.2,3.3-5.3,4.3c0,0.5-0.1,1-0.1,1.4c0,2.1,0.5,4.1,1.3,5.9h0.9c0,0,3.3-2.7,7.6-7.4
                C291.2,111.9,289.7,110.5,288,109.3z"/>
            <path class="st1" d="M290.6,104.2c-0.5,1.9-1.4,3.6-2.6,5.1c-1.4,1.8-3.2,3.3-5.3,4.3c0,0.5-0.1,1-0.1,1.4c0,2.1,0.5,4.1,1.3,5.9
                h0.9c0,0,3.3-2.7,7.6-7.4c1.8-1.9,3.7-4.2,5.7-6.7C295.3,106.6,292.8,105.6,290.6,104.2z"/>
            <path class="st3" d="M282.7,113.6c2.1-1,3.9-2.5,5.3-4.3c-1-0.7-2.1-1.3-3.3-1.7C283.6,109.4,282.9,111.4,282.7,113.6z"/>
            <path class="st4" d="M259.4,63.8c-4.6-3.9-10.6-6.2-17.1-6.2c-6.3,0-12,2.2-16.6,5.8c5,2.5,8.3,7.7,8.3,13.6
                c0,1.5-0.2,2.9-0.6,4.2c2.7,1.4,5.8,2.2,9.1,2.2c5.5,0,10.4-2.2,14-5.7c-0.1-0.9-0.2-1.8-0.2-2.8C256.4,70.8,257.5,67,259.4,63.8
                z"/>
            
                <linearGradient id="SVGID_00000129922737454164695620000002196158520838586296_" gradientUnits="userSpaceOnUse" x1="203.5032" y1="79.1451" x2="234.0264" y2="79.1451">
                <stop  offset="0" style="stop-color:#EF578E"/>
                <stop  offset="1" style="stop-color:#D0307D"/>
            </linearGradient>
            <path style="fill:url(#SVGID_00000129922737454164695620000002196158520838586296_);" d="M233.4,81.2c-5.7-2.9-9.8-8.4-10.8-15
                c-2.9,3.2-5.1,7.1-6.2,11.4c0.7,5.1,2.3,9.9,4.4,14.5C226.9,91.2,231.8,86.9,233.4,81.2z"/>
            <path class="st1" d="M222.6,66.2c-0.1-1-0.2-1.9-0.2-3c0-0.4,0-0.7,0-1.1c-1.2-0.3-2.4-0.5-3.7-0.5c-0.6,0-1.1,0-1.7,0.1
                c-0.6,3.3-1,6.8-1,10.5c0,1.8,0.1,3.6,0.4,5.4c0.7,5.1,2.3,9.9,4.4,14.5c6-0.8,10.9-5.2,12.6-10.9
                C227.7,78.3,223.6,72.8,222.6,66.2z"/>
            <path class="st4" d="M233.4,81.2c0.4-1.3,0.6-2.7,0.6-4.2c0-5.9-3.4-11.1-8.3-13.6c-1.1,0.9-2.1,1.8-3,2.8
                C223.6,72.8,227.7,78.3,233.4,81.2z"/>
            
                <linearGradient id="SVGID_00000012461356126053807470000009045821150907695286_" gradientUnits="userSpaceOnUse" x1="203.5032" y1="72.2684" x2="234.0264" y2="72.2684">
                <stop  offset="0" style="stop-color:#EF578E"/>
                <stop  offset="1" style="stop-color:#D0307D"/>
            </linearGradient>
            <path style="fill:url(#SVGID_00000012461356126053807470000009045821150907695286_);" d="M233.4,81.2c0.4-1.3,0.6-2.7,0.6-4.2
                c0-5.9-3.4-11.1-8.3-13.6c-1.1,0.9-2.1,1.8-3,2.8C223.6,72.8,227.7,78.3,233.4,81.2z"/>
            <path class="st7" d="M267.2,93.6c-1-0.6-1.9-1.2-2.8-1.9c-1.4,1.9-2.3,4.2-2.6,6.6c0.7,0.5,1.4,1,2.1,1.5
                C265.2,97.9,266.3,95.8,267.2,93.6z"/>
            <path class="st3" d="M238.8,102.3c-1.9-1-4.1-1.5-6.4-1.5c-2.1,0-4.1,0.5-5.9,1.3c1.5,2.3,3.1,4.4,4.7,6.3
                c1.4,0.6,2.8,1.1,4.2,1.5C236,107.1,237.2,104.5,238.8,102.3z"/>
            
                <linearGradient id="SVGID_00000124161780054131416160000004784789891816398764_" gradientUnits="userSpaceOnUse" x1="256.3539" y1="79.1488" x2="299.7045" y2="79.1488">
                <stop  offset="0" style="stop-color:#EF578E"/>
                <stop  offset="1" style="stop-color:#D0307D"/>
            </linearGradient>
            <path style="fill:url(#SVGID_00000124161780054131416160000004784789891816398764_);" d="M268.6,87.7c0.2-1.2,0.2-2.3,0.2-3.5
                c0-6.7-2.5-12.9-6.6-17.5c-0.7,4.3-2.8,8.1-5.7,11c0.7,5.7,3.6,10.7,7.8,14.1C265.5,90.1,267,88.7,268.6,87.7z"/>
            <path class="st4" d="M262.3,66.6c-0.9-1-1.9-2-2.9-2.8c-1.9,3.2-3,7-3,11.1c0,0.9,0.1,1.8,0.2,2.8
                C259.5,74.7,261.6,70.9,262.3,66.6z"/>
            
                <linearGradient id="SVGID_00000182489211586439864070000009634217454627866265_" gradientUnits="userSpaceOnUse" x1="256.3538" y1="70.6921" x2="299.7044" y2="70.6921">
                <stop  offset="0" style="stop-color:#EF578E"/>
                <stop  offset="1" style="stop-color:#D0307D"/>
            </linearGradient>
            <path style="fill:url(#SVGID_00000182489211586439864070000009634217454627866265_);" d="M262.3,66.6c-0.9-1-1.9-2-2.9-2.8
                c-1.9,3.2-3,7-3,11.1c0,0.9,0.1,1.8,0.2,2.8C259.5,74.7,261.6,70.9,262.3,66.6z"/>
            <path class="st0" d="M262.3,60c-1.4-8.3-7.9-14.9-16.1-16.4c-1.7,2.3-4.5,3.9-7.6,3.9c-2.1,0-4-0.7-5.6-1.8
                c-6,3.2-10.2,9.4-10.6,16.6c0,0.4,0,0.7,0,1.1c0,1,0.1,2,0.2,3c1,6.6,5.1,12.1,10.8,15c2.7,1.4,5.8,2.2,9.1,2.2
                c5.5,0,10.4-2.2,14-5.7c3-2.9,5-6.7,5.7-11c0.2-1.1,0.3-2.2,0.3-3.4C262.6,62.1,262.5,61,262.3,60z"/>
            <path class="st7" d="M268.6,87.7c-1.7,1-3.1,2.4-4.3,4c0.9,0.7,1.8,1.4,2.8,1.9C267.9,91.7,268.4,89.8,268.6,87.7z"/>
            
                <linearGradient id="SVGID_00000062177290086490914700000011101917493613813376_" gradientUnits="userSpaceOnUse" x1="256.3539" y1="90.6514" x2="299.7045" y2="90.6514">
                <stop  offset="0" style="stop-color:#EF578E"/>
                <stop  offset="1" style="stop-color:#D0307D"/>
            </linearGradient>
            <path style="fill:url(#SVGID_00000062177290086490914700000011101917493613813376_);" d="M268.6,87.7c-1.7,1-3.1,2.4-4.3,4
                c0.9,0.7,1.8,1.4,2.8,1.9C267.9,91.7,268.4,89.8,268.6,87.7z"/>
            <path class="st1" d="M293.1,75c-1.4-2.2-2.1-4.8-2.1-7.6c0-2,0.4-4,1.2-5.7c0.3-0.8,0.8-1.6,1.2-2.3c-1-1-2.1-1.9-3.3-2.7
                c-1.7-1.1-3.5-2-5.5-2.6c-2-0.6-4.2-1-6.4-1c-4.1,0-8,1.2-11.3,3.2c-1.6,1-3.1,2.2-4.5,3.6c0.2,1.1,0.3,2.2,0.3,3.3
                c0,1.1-0.1,2.3-0.3,3.4c-0.7,4.3-2.8,8.1-5.7,11c0.7,5.7,3.6,10.7,7.8,14.1c0.9,0.7,1.8,1.4,2.8,1.9c3.2,1.9,6.9,2.9,10.9,2.9
                c2.1,0,4.1-0.3,5.9-0.8c1.9-0.5,3.7-1.4,5.4-2.4c4.7-2.9,8.1-7.4,9.6-12.9C296.5,79.2,294.5,77.4,293.1,75z"/>
            <path class="st4" d="M261.7,98.3c-2.7-1.7-5.8-2.7-9.2-2.7c-5.6,0-10.5,2.6-13.7,6.7c3.3,1.7,5.9,4.6,7.1,8.2
                c6.2-0.9,11.7-3.9,15.8-8.2c-0.1-0.7-0.2-1.3-0.2-2C261.6,99.6,261.7,98.9,261.7,98.3z"/>
            <path class="st2" d="M261.7,98.3c0.3-2.4,1.3-4.7,2.6-6.6c-4.2-3.4-7.1-8.4-7.8-14.1c-3.6,3.5-8.6,5.7-14,5.7
                c-3.3,0-6.3-0.8-9.1-2.2c-1.6,5.7-6.5,10.1-12.6,10.9c1.7,3.6,3.6,6.9,5.7,10c1.8-0.8,3.8-1.3,5.9-1.3c2.3,0,4.5,0.6,6.4,1.5
                c3.3,1.7,5.9,4.6,7.1,8.2c6.2-0.9,11.7-3.9,15.8-8.2c-0.1-0.7-0.2-1.3-0.2-2C261.6,99.6,261.7,98.9,261.7,98.3z"/>
            <path class="st4" d="M261.7,98.3c-0.1,0.7-0.2,1.3-0.2,2c0,0.7,0.1,1.4,0.2,2c0.7-0.8,1.4-1.6,2.1-2.5
                C263.2,99.3,262.5,98.7,261.7,98.3z"/>
            <path class="st0" d="M289.1,103.1c-2.3-1.9-4.1-4.5-5.1-7.4c-1.9,0.5-3.9,0.8-5.9,0.8c-4,0-7.7-1.1-10.9-2.9
                c-1-0.6-1.9-1.2-2.8-1.9c-1.4,1.9-2.3,4.2-2.6,6.6c-0.1,0.7-0.2,1.3-0.2,2c0,0.7,0.1,1.4,0.2,2c0.5,3.5,2.2,6.7,4.7,8.9
                c1,0.9,2.1,1.7,3.3,2.3c2,1,4.2,1.6,6.6,1.6c2.3,0,4.4-0.5,6.3-1.4c2.1-1,3.9-2.5,5.3-4.3c1.2-1.5,2.1-3.2,2.6-5.1
                C290.1,103.9,289.6,103.5,289.1,103.1z"/>
            <path class="st4" d="M238.8,102.3c-1.7,2.2-2.9,4.8-3.3,7.6c2.2,0.6,4.4,0.9,6.8,0.9c1.2,0,2.5-0.1,3.7-0.3
                C244.7,106.9,242.2,104,238.8,102.3z"/>
            <path class="st0" d="M245.9,110.5c-1.2-3.6-3.8-6.5-7.1-8.2c-1.9-1-4.1-1.5-6.4-1.5c-2.1,0-4.1,0.5-5.9,1.3
                c1.5,2.3,3.1,4.4,4.7,6.3c1.4,1.7,2.7,3.2,4,4.6c4.6,5,8.2,7.9,8.2,7.9h2c0.8-1.8,1.3-3.8,1.3-5.9
                C246.7,113.5,246.4,111.9,245.9,110.5z"/>
        </g>
        <g>
            <path class="st0" d="M248.8,136.6h30.1c2.1,0,3.8,1.6,3.8,3.6c0,2-1.7,3.6-3.8,3.6h-30.1c-2.1,0-3.8-1.6-3.8-3.6
                C244.9,138.2,246.6,136.6,248.8,136.6z"/>
            <path class="st0" d="M263.8,153.9c-4.9,0-9.1-2.5-11.5-6.3h23C272.9,151.4,268.7,153.9,263.8,153.9z"/>
            <path class="st0" d="M248.8,125.3h30.1c2.1,0,3.8,1.6,3.8,3.6c0,2-1.7,3.6-3.8,3.6h-30.1c-2.1,0-3.8-1.6-3.8-3.6
                C244.9,126.9,246.6,125.3,248.8,125.3z"/>
        </g>
    </g>
    <g>
        <g>
            <path class="st2" d="M16.9,184.3l-5.1-7.3h-0.3v7.3H8.8v-17c1.2-0.1,2.6-0.1,4.5-0.1c3.5,0,5.9,1.2,5.9,4.6
                c0,2.7-2.1,4.4-4.6,4.7c0.5,0.6,1,1.2,1.4,1.8l4.3,5.9H16.9z M12.9,169.5c-0.5,0-1,0-1.4,0.1v5.4c0.3,0,0.7,0,1.3,0
                c2.2,0,3.5-1.1,3.5-2.8C16.4,170.3,15.2,169.5,12.9,169.5z"/>
            <path class="st2" d="M32.1,178.3h-8c-0.1,2.8,1.2,4.1,3.7,4.1c1.2,0,2.5-0.3,3.6-0.8l0.4,2.1c-1.3,0.5-2.9,0.8-4.4,0.8
                c-3.8,0-6-2-6-6.4c0-3.8,2.1-6.6,5.7-6.6c3.6,0,5.1,2.4,5.1,5.4C32.2,177.3,32.2,177.7,32.1,178.3z M27,173.5
                c-1.5,0-2.6,1.1-2.8,2.9h5.3C29.6,174.6,28.6,173.5,27,173.5z"/>
            <path class="st2" d="M36,184.3v-10.4c-0.6-0.1-1.5-0.2-2.2-0.3V172c1.4-0.2,3.2-0.3,4.8-0.2v12.5H36z M37.3,169.6
                c-0.9,0-1.7-0.7-1.7-1.7c0-0.9,0.8-1.7,1.7-1.7c1,0,1.7,0.8,1.7,1.7S38.3,169.6,37.3,169.6z"/>
            <path class="st2" d="M58.6,184.3v-8c0-1.5-0.4-2.5-1.8-2.5c-1.6,0-3.2,1.8-3.2,4.5v6h-2.7v-8c0-1.4-0.3-2.5-1.8-2.5
                c-1.7,0-3.2,1.9-3.2,4.5v6h-2.7v-10.4c-0.6-0.1-1.5-0.2-2.2-0.3V172c1.4-0.2,3.2-0.3,4.7-0.2c0,0.7-0.1,1.7-0.2,2.5l0,0
                c0.8-1.7,2.3-2.7,4.2-2.7c2.4,0,3.2,1.6,3.4,2.7c0.6-1.2,1.9-2.7,4.2-2.7c2.4,0,3.7,1.3,3.7,4.1v8.6H58.6z"/>
            <path class="st2" d="M71.9,184.3c0-0.8,0-1.6,0.1-2.3l0,0c-0.6,1.5-2.2,2.6-4.1,2.6c-2.1,0-3.5-1.3-3.5-3.4
                c0-2.8,2.9-4.4,7.4-4.4V176c0-1.6-0.7-2.4-2.6-2.4c-1.2,0-2.6,0.4-3.6,0.9l-0.4-2.2c1.2-0.5,2.9-0.8,4.4-0.8
                c3.8,0,4.9,1.7,4.9,4.2v6.4c0.6,0.1,1.5,0.2,2.2,0.3v1.7C75.2,184.3,73.3,184.4,71.9,184.3z M71.7,178.5c-3.7,0-4.8,1.1-4.8,2.2
                c0,1,0.7,1.7,1.7,1.7c1.8,0,3.1-1.8,3.1-3.5V178.5z"/>
            <path class="st2" d="M82.3,190.6c-1.4,0-2.7-0.2-3.7-0.5l0.3-2.5c1.1,0.4,2.4,0.7,3.6,0.7c2.5,0,3.8-0.9,3.8-3.5V184
                c0-0.7,0-1.4,0.2-2l-0.1,0c-0.7,1.6-2.1,2.6-3.9,2.6c-3,0-4.6-2-4.6-5.9c0-4.3,2.5-7.1,6.7-7.1c1.6,0,3.1,0.1,4.4,0.4v13
                C89,187.6,87.8,190.6,82.3,190.6z M86.3,174c-0.7-0.2-1.3-0.2-2-0.2c-2.1,0-3.6,1.3-3.6,4.7c0,2.5,0.8,3.9,2.5,3.9
                c2,0,3.1-2.3,3.1-4.5V174z"/>
            <path class="st2" d="M93.6,184.3v-10.4c-0.6-0.1-1.5-0.2-2.2-0.3V172c1.4-0.2,3.2-0.3,4.8-0.2v12.5H93.6z M94.9,169.6
                c-0.9,0-1.7-0.7-1.7-1.7c0-0.9,0.8-1.7,1.7-1.7c1,0,1.7,0.8,1.7,1.7S95.9,169.6,94.9,169.6z"/>
            <path class="st2" d="M108.7,184.3v-8c0-1.6-0.4-2.5-1.9-2.5c-1.9,0-3.3,2-3.3,4.5v6h-2.7v-10.4c-0.6-0.1-1.5-0.2-2.2-0.3V172
                c1.4-0.2,3.2-0.3,4.7-0.2c0,0.7-0.1,1.7-0.2,2.5h0.1c0.7-1.6,2.2-2.7,4.3-2.7c2.8,0,3.7,1.8,3.7,4v8.7H108.7z"/>
            <path class="st2" d="M125,178.3h-8c-0.1,2.8,1.2,4.1,3.7,4.1c1.2,0,2.5-0.3,3.6-0.8l0.4,2.1c-1.3,0.5-2.9,0.8-4.4,0.8
                c-3.8,0-6-2-6-6.4c0-3.8,2.1-6.6,5.7-6.6c3.6,0,5.1,2.4,5.1,5.4C125.1,177.3,125.1,177.7,125,178.3z M119.9,173.5
                c-1.5,0-2.6,1.1-2.8,2.9h5.3C122.5,174.6,121.5,173.5,119.9,173.5z"/>
            <path class="st2" d="M137.9,184.5c-2.7,0-3.5-1-3.5-3.8v-6.8H132v-2.1h2.4v-4l2.7-0.7v4.7h3.3v2.1h-3.3v6c0,1.9,0.4,2.4,1.6,2.4
                c0.6,0,1.1-0.1,1.5-0.2l0.2,2.2C139.7,184.4,138.7,184.5,137.9,184.5z"/>
            <path class="st2" d="M151.2,184.3v-8c0-1.6-0.4-2.5-1.9-2.5c-1.9,0-3.3,2-3.3,4.5v6h-2.7V168c-0.6-0.1-1.5-0.2-2.2-0.3v-1.7
                c1.4-0.2,3.2-0.3,4.9-0.2v5.7c0,0.8-0.1,1.8-0.2,2.5l0.1,0c0.7-1.6,2.2-2.6,4.2-2.6c2.8,0,3.7,1.8,3.7,4v8.7H151.2z"/>
            <path class="st2" d="M167.5,178.3h-8c-0.1,2.8,1.2,4.1,3.7,4.1c1.2,0,2.5-0.3,3.6-0.8l0.4,2.1c-1.3,0.5-2.9,0.8-4.4,0.8
                c-3.8,0-6-2-6-6.4c0-3.8,2.1-6.6,5.7-6.6c3.6,0,5.1,2.4,5.1,5.4C167.6,177.3,167.6,177.7,167.5,178.3z M162.4,173.5
                c-1.5,0-2.6,1.1-2.8,2.9h5.3C165,174.6,164,173.5,162.4,173.5z"/>
            <path class="st2" d="M181.4,184.5c-0.7,0-1.3,0-1.9-0.2v6.1h-2.7v-16.5c-0.6-0.1-1.5-0.2-2.2-0.3V172c1.4-0.2,3.2-0.3,4.7-0.2
                c0,0.7,0,1.7-0.2,2.3h0.1c0.7-1.6,2.1-2.6,4.1-2.6c2.9,0,4.6,2.1,4.6,5.9C187.9,181.8,185.6,184.5,181.4,184.5z M182.6,173.8
                c-2,0-3.1,2.4-3.1,4.5v3.8c0.6,0.2,1.2,0.3,2,0.3c2.1,0,3.6-1.3,3.6-4.7C185.1,175.2,184.3,173.8,182.6,173.8z"/>
            <path class="st2" d="M195.5,184.5c-3.5,0-5.7-1.9-5.7-6.3c0-3.8,2.4-6.7,6.2-6.7c3.3,0,5.7,1.9,5.7,6.3
                C201.7,181.6,199.2,184.5,195.5,184.5z M195.8,173.8c-1.6,0-3.2,1.3-3.2,4.1c0,2.8,1.1,4.3,3.2,4.3c1.7,0,3.2-1.4,3.2-4.2
                C199,175.3,198,173.8,195.8,173.8z"/>
            <path class="st2" d="M206.8,184.5c-1,0-2-0.1-2.8-0.4l0.2-2.3c0.8,0.3,1.8,0.5,2.7,0.5c1.4,0,2.4-0.6,2.4-1.6
                c0-2.6-5.5-1-5.5-5.3c0-2.2,1.7-3.9,5.1-3.9c0.8,0,1.6,0.1,2.4,0.3l-0.2,2.2c-0.7-0.2-1.6-0.4-2.4-0.4c-1.5,0-2.2,0.6-2.2,1.6
                c0,2.5,5.5,1.1,5.5,5.3C212.2,182.8,210.1,184.5,206.8,184.5z"/>
            <path class="st2" d="M217.4,184.5c-1,0-2-0.1-2.8-0.4l0.2-2.3c0.8,0.3,1.8,0.5,2.7,0.5c1.4,0,2.4-0.6,2.4-1.6
                c0-2.6-5.5-1-5.5-5.3c0-2.2,1.7-3.9,5.1-3.9c0.8,0,1.6,0.1,2.4,0.3l-0.2,2.2c-0.7-0.2-1.6-0.4-2.4-0.4c-1.5,0-2.2,0.6-2.2,1.6
                c0,2.5,5.5,1.1,5.5,5.3C222.7,182.8,220.7,184.5,217.4,184.5z"/>
            <path class="st2" d="M226.6,184.3v-10.4c-0.6-0.1-1.5-0.2-2.2-0.3V172c1.4-0.2,3.2-0.3,4.8-0.2v12.5H226.6z M227.9,169.6
                c-0.9,0-1.7-0.7-1.7-1.7c0-0.9,0.8-1.7,1.7-1.7c1,0,1.7,0.8,1.7,1.7S228.8,169.6,227.9,169.6z"/>
            <path class="st2" d="M238,184.5c-1.8,0-3.1-0.2-4.4-0.5V168c-0.6-0.1-1.5-0.2-2.2-0.3v-1.7c1.4-0.2,3.2-0.3,4.9-0.2v5.8
                c0,0.7-0.1,1.7-0.2,2.4h0c0.7-1.6,2.1-2.5,4-2.5c3,0,4.6,2.1,4.6,5.9C244.6,181.7,242.2,184.5,238,184.5z M239.3,173.8
                c-2,0-3.1,2.3-3.1,4.4v3.9c0.6,0.2,1.2,0.3,2,0.3c2.1,0,3.6-1.3,3.6-4.7C241.8,175.2,241,173.8,239.3,173.8z"/>
            <path class="st2" d="M248.3,184.3v-10.4c-0.6-0.1-1.5-0.2-2.2-0.3V172c1.4-0.2,3.2-0.3,4.8-0.2v12.5H248.3z M249.7,169.6
                c-0.9,0-1.7-0.7-1.7-1.7c0-0.9,0.8-1.7,1.7-1.7c1,0,1.7,0.8,1.7,1.7S250.6,169.6,249.7,169.6z"/>
            <path class="st2" d="M255.3,184.3V168c-0.6-0.1-1.5-0.2-2.2-0.3v-1.7c1.4-0.2,3.2-0.3,4.9-0.2v18.3H255.3z"/>
            <path class="st2" d="M262.7,184.3v-10.4c-0.6-0.1-1.5-0.2-2.2-0.3V172c1.4-0.2,3.2-0.3,4.8-0.2v12.5H262.7z M264,169.6
                c-0.9,0-1.7-0.7-1.7-1.7c0-0.9,0.8-1.7,1.7-1.7c1,0,1.7,0.8,1.7,1.7S265,169.6,264,169.6z"/>
            <path class="st2" d="M273.3,184.5c-2.7,0-3.5-1-3.5-3.8v-6.8h-2.4v-2.1h2.4v-4l2.7-0.7v4.7h3.3v2.1h-3.3v6c0,1.9,0.4,2.4,1.6,2.4
                c0.6,0,1.1-0.1,1.5-0.2l0.2,2.2C275.1,184.4,274.1,184.5,273.3,184.5z"/>
            <path class="st2" d="M279.4,184.3v-10.4c-0.6-0.1-1.5-0.2-2.2-0.3V172c1.4-0.2,3.2-0.3,4.8-0.2v12.5H279.4z M280.7,169.6
                c-0.9,0-1.7-0.7-1.7-1.7c0-0.9,0.8-1.7,1.7-1.7c1,0,1.7,0.8,1.7,1.7S281.7,169.6,280.7,169.6z"/>
            <path class="st2" d="M295.7,178.3h-8c-0.1,2.8,1.2,4.1,3.7,4.1c1.2,0,2.5-0.3,3.6-0.8l0.4,2.1c-1.3,0.5-2.9,0.8-4.4,0.8
                c-3.8,0-6-2-6-6.4c0-3.8,2.1-6.6,5.7-6.6c3.6,0,5.1,2.4,5.1,5.4C295.7,177.3,295.7,177.7,295.7,178.3z M290.5,173.5
                c-1.5,0-2.6,1.1-2.8,2.9h5.3C293.1,174.6,292.1,173.5,290.5,173.5z"/>
            <path class="st2" d="M300.9,184.5c-1,0-2-0.1-2.8-0.4l0.2-2.3c0.8,0.3,1.8,0.5,2.7,0.5c1.4,0,2.4-0.6,2.4-1.6
                c0-2.6-5.5-1-5.5-5.3c0-2.2,1.7-3.9,5.1-3.9c0.8,0,1.6,0.1,2.4,0.3l-0.2,2.2c-0.7-0.2-1.6-0.4-2.4-0.4c-1.5,0-2.2,0.6-2.2,1.6
                c0,2.5,5.5,1.1,5.5,5.3C306.3,182.8,304.2,184.5,300.9,184.5z"/>
            <path class="st2" d="M310.4,184.5c-1,0-1.8-0.8-1.8-1.8c0-1,0.8-1.8,1.8-1.8c1,0,1.8,0.8,1.8,1.8
                C312.2,183.7,311.4,184.5,310.4,184.5z"/>
        </g>
    </g>
    <g>
        <path class="st0" d="M3.3,107.7v-0.3c0-25.7,19.2-46.7,46.6-46.7c13.9,0,23.1,4.1,31,10.2c1.7,1.3,3.1,3.5,3.1,6.3
            c0,4.4-3.5,7.7-7.9,7.7c-2.2,0-3.7-0.8-4.8-1.5c-6.2-5-12.9-8.1-21.5-8.1C32.6,75.4,20,89.6,20,107.2v0.3c0,17.7,12.5,32,29.8,32
            c9.5,0,16-3.1,22.6-8.6c1.2-1,2.8-1.8,4.8-1.8c4,0,7.5,3.4,7.5,7.4c0,2.5-1.2,4.4-2.6,5.7c-8.5,7.5-18.2,12.1-32.8,12.1
            C23,154.2,3.3,133.7,3.3,107.7z"/>
        <path class="st0" d="M100.2,142.6c-1.8-1.3-3.1-3.5-3.1-6.1c0-4.1,3.4-7.4,7.5-7.4c2.2,0,3.6,0.6,4.6,1.4
            c7.5,5.9,15.5,9.3,25.3,9.3s16-4.6,16-11.4v-0.3c0-6.5-3.6-9.9-20.4-13.8c-19.2-4.6-30.1-10.3-30.1-27v-0.3
            C100.1,71.7,113,61,131,61c11.4,0,20.5,3,28.6,8.4c1.8,1,3.5,3.2,3.5,6.3c0,4.1-3.4,7.4-7.5,7.4c-1.5,0-2.8-0.4-4.1-1.2
            c-7-4.5-13.7-6.8-20.8-6.8c-9.3,0-14.7,4.8-14.7,10.7v0.3c0,7,4.1,10.1,21.5,14.2c19.1,4.6,28.9,11.5,28.9,26.5v0.3
            c0,16.9-13.3,27-32.3,27C121.9,153.9,110.3,150.1,100.2,142.6z"/>
        <path class="st0" d="M186.1,69.6c0-4.4,3.5-7.9,8-7.9c4.4,0,7.9,3.5,7.9,7.9v75.9c0,4.4-3.5,7.9-7.9,7.9c-4.5,0-8-3.5-8-7.9V69.6z
            "/>
    </g>
</g>
</svg>