<svg style="height: 15px; width: 15px; vertical-align: middle; margin: 0px 6px 0px 5px;"
     xmlns="http://www.w3.org/2000/svg"
     viewBox="0 0 576 512">
    <path fill="#005e7d"
          d="M64,80c-8.8,0-16,7.2-16,16v320c0,8.8,7.2,16,16,16h448c8.8,0,16-7.2,16-16V96c0-8.8-7.2-16-16-16H64z M0,96 c0-35.3,28.7-64,64-64h448c35.3,0,64,28.7,64,64v320c0,35.3-28.7,64-64,64H64c-35.3,0-64-28.7-64-64V96z M120,240h176 c13.3,0,24,10.7,24,24c0,13.3-10.7,24-24,24H120c-13.3,0-24-10.7-24-24S106.7,240,120,240z M376,240h80c13.3,0,24,10.7,24,24 c0,13.3-10.7,24-24,24h-80c-13.3,0-24-10.7-24-24S362.7,240,376,240z M120,336h80c13.3,0,24,10.7,24,24s-10.7,24-24,24h-80 c-13.3,0-24-10.7-24-24S106.7,336,120,336z M280,336h176c13.3,0,24,10.7,24,24s-10.7,24-24,24H280c-13.3,0-24-10.7-24-24 S266.7,336,280,336z M127.3,143.5h80c13.3,0,24,10.7,24,24s-10.7,24-24,24h-80c-13.3,0-24-10.7-24-24S114,143.5,127.3,143.5z M287.3,143.5h176c13.3,0,24,10.7,24,24s-10.7,24-24,24h-176c-13.3,0-24-10.7-24-24S274,143.5,287.3,143.5z" />
</svg>