<svg class="svg-icon"
     xmlns="http://www.w3.org/2000/svg"
     version="1.1"
     x="0"
     y="0"
     viewBox="0 0 96 96"
     style="enable-background:new 0 0 512 512; width: 28px; vertical-align: middle;"
     xml:space="preserve">
    <g>
        <path d="M64.943 29.487a3.548 3.548 0 0 0 5.372-.001l5.172-5.989a2.957 2.957 0 1 0-4.477-3.865l-3.381 3.915-3.381-3.915a2.957 2.957 0 1 0-4.477 3.865z"
              fill="#007fa8"
              data-original="#007fa8" />
        <path d="M13.46 90h69.074C86.529 90 90 86.701 90 82.706v-70.45C90 8.888 87.036 6 83.668 6H12.326C8.958 6 6 8.888 6 12.256v70.45C6 86.701 9.466 90 13.46 90zm-1.134-78h71.343c.101 0 .166 25 .157 25H12.169c-.009 0 .056-25 .157-25zM12 43h72v39.706c0 .727-.74 1.294-1.466 1.294H13.46c-.726 0-1.46-.567-1.46-1.294z"
              fill="#007fa8"
              data-original="#007fa8" />
        <path d="M24.338 59H71.07c1.634 0 2.958-1.366 2.958-3s-1.324-3-2.958-3H24.338c-1.634 0-2.958 1.366-2.958 3s1.324 3 2.958 3zM24.338 74H55.69c1.634 0 2.958-1.366 2.958-3s-1.324-3-2.958-3H24.338c-1.634 0-2.958 1.366-2.958 3s1.324 3 2.958 3z"
              fill="#007fa8"
              data-original="#007fa8" />
    </g>
</svg>